<svg width="25" height="25" viewBox="0 0 25 25" fill="none" xmlns="http://www.w3.org/2000/svg">
<g clip-path="url(#clip0_1502_367)">
<path fill-rule="evenodd" clip-rule="evenodd" d="M0 0H25V25H0V0Z" fill="white"/>
<path fill-rule="evenodd" clip-rule="evenodd" d="M1.10032 23.0471H1.02885C1.02885 23.0114 1.01096 22.9577 1.01096 22.9397C1.01096 22.9219 1.01096 22.8863 0.957261 22.8863H0.849871V23.0471H0.796176V22.6715H0.957261C1.02885 22.6715 1.08242 22.6895 1.08242 22.7609C1.08242 22.8146 1.06452 22.8326 1.04675 22.8502C1.06465 22.8682 1.08242 22.8861 1.08242 22.9219V22.9934C1.08242 23.0114 1.08242 23.0114 1.10032 23.0114V23.0471ZM1.02885 22.7789C1.02885 22.7252 0.993057 22.7252 0.975159 22.7252H0.849871V22.8326H0.957261C0.993057 22.8326 1.02885 22.8146 1.02885 22.7789V22.7789ZM1.33299 22.8503C1.33299 22.6358 1.15414 22.4567 0.921464 22.4567C0.706815 22.4567 0.527832 22.6358 0.527832 22.8503C0.527832 23.0829 0.706815 23.262 0.921464 23.262C1.15401 23.2619 1.33299 23.0829 1.33299 22.8503ZM1.2793 22.8503C1.2793 23.0472 1.11835 23.1903 0.921464 23.1903C0.724583 23.1903 0.581527 23.0471 0.581527 22.8503C0.581527 22.6715 0.724713 22.5104 0.921464 22.5104C1.11822 22.5104 1.2793 22.6715 1.2793 22.8503ZM23.3219 15.6222C23.3219 16.159 22.982 16.4092 22.3736 16.4092H21.2108V15.8724H22.3736C22.481 15.8724 22.5705 15.8546 22.6064 15.8189C22.6421 15.783 22.6779 15.7293 22.6779 15.6578C22.6779 15.5861 22.6422 15.5146 22.6064 15.479C22.5705 15.4431 22.499 15.4253 22.3916 15.4253C21.8372 15.4073 21.1392 15.4431 21.1392 14.6559C21.1392 14.298 21.3718 13.9043 21.998 13.9043H23.1966V14.4411H22.0873C21.9802 14.4411 21.9085 14.4411 21.8548 14.4768C21.8011 14.5305 21.7654 14.5842 21.7654 14.6737C21.7654 14.7632 21.8191 14.8169 21.8906 14.8528C21.9623 14.8706 22.0339 14.8885 22.1234 14.8885H22.4453C22.7852 14.8885 23 14.9599 23.1432 15.0853C23.2503 15.2105 23.3219 15.3717 23.3219 15.6222V15.6222ZM20.7992 15.0853C20.656 14.9599 20.4412 14.8885 20.1013 14.8885H19.7794C19.69 14.8885 19.6183 14.8704 19.5468 14.8528C19.4751 14.8169 19.4217 14.7632 19.4217 14.6737C19.4217 14.5842 19.4394 14.5305 19.511 14.4768C19.5647 14.4411 19.6362 14.4411 19.7436 14.4411H20.8529V13.9043H19.6542C19.01 13.9043 18.7952 14.298 18.7952 14.6559C18.7952 15.4429 19.4931 15.4073 20.0478 15.4253C20.155 15.4253 20.2267 15.4431 20.2624 15.479C20.298 15.5146 20.3341 15.5861 20.3341 15.6578C20.3341 15.7293 20.2982 15.783 20.2624 15.8189C20.2087 15.8546 20.1372 15.8724 20.0298 15.8724H18.8668V16.4092H20.0298C20.638 16.4092 20.978 16.1589 20.978 15.6222C20.978 15.3717 20.9066 15.2105 20.7992 15.0853V15.0853ZM18.509 15.8905H17.0958V15.3895H18.4733V14.8887H17.0958V14.4234H18.509V13.9046H16.5053V16.4093H18.509V15.8905ZM15.8611 14.0299C15.6642 13.9225 15.4316 13.9045 15.1275 13.9045H13.75V16.4092H14.3581V15.4968H15.0023C15.2169 15.4968 15.3423 15.5148 15.4318 15.6041C15.5392 15.7293 15.5392 15.9441 15.5392 16.1052V16.4092H16.1294V15.9261C16.1294 15.6935 16.1117 15.5861 16.0401 15.461C15.9864 15.3892 15.8792 15.2999 15.736 15.2462C15.8969 15.1927 16.1655 14.978 16.1655 14.5842C16.1653 14.2981 16.058 14.137 15.8611 14.0299V14.0299ZM12.4617 13.9045H10.5472L9.77787 14.7275L9.0443 13.9045H6.62894V16.4092H9.00863L9.778 15.5861L10.5116 16.4092H11.6746V15.5685H12.426C12.9448 15.5685 13.4639 15.4253 13.4639 14.7275C13.4637 14.0476 12.9269 13.9045 12.4617 13.9045ZM15.378 14.9423C15.2886 14.978 15.1991 14.978 15.0917 14.978L14.3581 14.996V14.4232H15.0917C15.1991 14.4232 15.3065 14.4232 15.378 14.4769C15.4497 14.5129 15.5031 14.5843 15.5031 14.6917C15.5031 14.7991 15.4497 14.8886 15.378 14.9423V14.9423ZM12.4617 15.0675H11.6744V14.4232H12.4617C12.6765 14.4232 12.8195 14.5129 12.8195 14.7275C12.8195 14.9423 12.6764 15.0675 12.4617 15.0675ZM10.1536 15.1568L11.0839 14.1729V16.1947L10.1536 15.1568ZM8.70436 15.8905H7.21932V15.3895H8.54328V14.8887H7.21932V14.4234H8.72226L9.38424 15.1569L8.70436 15.8905V15.8905ZM21.6579 12.0974H20.7992L19.672 10.2187V12.0974H18.4555L18.2227 11.5427H16.9704L16.7378 12.0974H16.0399C15.7537 12.0974 15.378 12.0258 15.1634 11.811C14.9666 11.5964 14.8592 11.3101 14.8592 10.8628C14.8592 10.4871 14.9129 10.1471 15.1811 9.87877C15.3599 9.68189 15.6821 9.59253 16.0935 9.59253H16.666V10.1293H16.0935C15.879 10.1293 15.7536 10.1651 15.6284 10.2725C15.521 10.3799 15.4673 10.5767 15.4673 10.845C15.4673 11.1134 15.521 11.3102 15.6284 11.4355C15.7178 11.5249 15.879 11.5607 16.0398 11.5607H16.3083L17.167 9.59266H18.0617L19.0636 11.9543V9.59253H19.994L21.0496 11.328V9.59253H21.6578V12.0974H21.6579V12.0974ZM14.555 9.59253H13.9469V12.0974H14.555V9.59253V9.59253ZM13.2846 9.69992C13.0878 9.59253 12.8732 9.59253 12.5691 9.59253H11.1913V12.0974H11.7817V11.1848H12.4258C12.6406 11.1848 12.7837 11.2027 12.8731 11.2922C12.9805 11.4175 12.9625 11.6323 12.9625 11.7753V12.0974H13.5706V11.5964C13.5706 11.3817 13.5528 11.2743 13.4635 11.149C13.4098 11.0774 13.3024 10.9879 13.1772 10.9344C13.3381 10.8628 13.6067 10.666 13.6067 10.2724C13.6068 9.98616 13.4814 9.82507 13.2846 9.69992ZM10.7619 11.5786H9.36634V11.0776H10.744V10.5588H9.36634V10.1114H10.7619V9.59266H8.75805V12.0975H10.7619V11.5786ZM8.31073 9.59253H7.32671L6.59314 11.2922L5.80588 9.59253H4.83976V11.9542L3.81995 9.59253H2.92542L1.85192 12.0974H2.49599L2.72854 11.5427H3.9809L4.21345 12.0974H5.43014V10.1293L6.30677 12.0974H6.82556L7.70232 10.1293V12.0974H8.3106V9.59253H8.31073ZM18.0082 11.006L17.5966 10.022L17.1852 11.006H18.0082ZM12.8195 10.6125C12.7302 10.6662 12.6407 10.6662 12.5154 10.6662H11.7817V10.1116H12.5153C12.6227 10.1116 12.7477 10.1116 12.8194 10.1474C12.8909 10.2011 12.9268 10.2727 12.9268 10.3799C12.9268 10.4872 12.891 10.5765 12.8195 10.6125V10.6125ZM2.94319 11.006L3.35472 10.022L3.76625 11.006H2.94319V11.006ZM23.1789 1.73804H1.83389V10.7555L2.56746 9.09163H4.12396L4.33874 9.50316V9.09163H6.16371L6.57524 9.98616L6.96888 9.09163H12.7837C13.052 9.09163 13.2845 9.14533 13.4636 9.28838V9.09163H15.0559V9.28838C15.3241 9.1452 15.6641 9.09163 16.0578 9.09163H18.3658L18.5806 9.50316V9.09163H20.2803L20.5308 9.50316V9.09163H22.1946V12.5984H20.5129L20.191 12.0617V12.5984H18.0976L17.865 12.0259H17.346L17.1134 12.5984H16.0222C15.5927 12.5984 15.2706 12.491 15.056 12.3837V12.5984H12.4617V11.7932C12.4617 11.6858 12.4438 11.6679 12.3722 11.6679H12.2828V12.5983H7.27302V12.1509L7.09416 12.5983H6.03855L5.8597 12.1688V12.5983H3.83785L3.6232 12.0258H3.10428L2.87173 12.5983H1.83389V23.1724H23.1789V16.7491C22.9463 16.8565 22.6242 16.9102 22.3021 16.9102H20.7455V16.6954C20.5666 16.8387 20.2445 16.9102 19.9405 16.9102H15.038V16.1052C15.038 15.9978 15.0202 15.9978 14.9306 15.9978H14.8413V16.9102H13.2309V15.962C12.9627 16.0871 12.6585 16.0871 12.3901 16.0871H12.2111V16.9102H10.2431L9.778 16.3734L9.25921 16.9102H6.09212V13.4036H9.31264L9.77787 13.9401L10.2789 13.4036H12.4438C12.6941 13.4036 13.1058 13.4392 13.2846 13.6181V13.4036H15.2169C15.4137 13.4036 15.7896 13.4392 16.0399 13.6181V13.4036H18.9563V13.6182C19.1174 13.475 19.4217 13.4037 19.6899 13.4037H21.318V13.6182C21.4971 13.4931 21.7474 13.4037 22.0696 13.4037H23.1789V1.73804V1.73804Z" fill="#0077A6"/>
</g>
<defs>
<clipPath id="clip0_1502_367">
<rect width="25" height="25" fill="white"/>
</clipPath>
</defs>
</svg>
