<svg width="53" height="25" viewBox="0 0 53 25" fill="none" xmlns="http://www.w3.org/2000/svg">
<path d="M10.9865 7.65813C11.4957 7.4884 12.0388 7.39788 12.6023 7.39788C15.0691 7.39788 17.1284 9.14949 17.5992 11.4782L21.0956 10.7653C20.2945 6.80948 16.7958 3.8313 12.6023 3.8313C11.6405 3.8313 10.7195 3.98745 9.85498 4.27712L10.9865 7.65813Z" fill="#FFCB05"/>
<path d="M6.86113 18.9871L9.22602 16.3144C8.17144 15.3798 7.5061 14.0151 7.5061 12.4944C7.5061 10.9758 8.17144 9.61122 9.22602 8.67884L6.86113 6.00391C5.06878 7.59257 3.93726 9.91221 3.93726 12.4944C3.93726 15.0788 5.06878 17.3984 6.86113 18.9871" fill="#00A4E0"/>
<path d="M17.5992 13.5172C17.1262 15.8436 15.0691 17.593 12.6046 17.593C12.0388 17.593 11.4934 17.5025 10.9865 17.3305L9.85498 20.716C10.7195 21.0034 11.6428 21.1596 12.6046 21.1596C16.7935 21.1596 20.2899 18.1859 21.0956 14.2346L17.5992 13.5172Z" fill="#EF4123"/>
<path d="M24.1531 16.4253C24.0377 16.2397 23.8838 15.9433 23.7887 15.7238C23.2343 14.4384 23.2094 13.1077 23.6756 11.8313C24.1893 10.4305 25.1715 9.36005 26.441 8.81239C28.0365 8.12669 29.7994 8.26021 31.3292 9.1677C32.3001 9.72441 32.9881 10.5844 33.5108 11.8019C33.5765 11.958 33.6353 12.1232 33.6941 12.2658L24.1531 16.4253ZM27.3395 10.8786C26.2057 11.3651 25.6218 12.4288 25.744 13.6734L30.5417 11.6073C29.7157 10.6387 28.643 10.3173 27.3395 10.8786ZM31.1391 15.373C31.1369 15.373 31.1369 15.3753 31.1369 15.3753L31.0373 15.3074C30.7499 15.7713 30.3041 16.1492 29.7406 16.3936C28.6679 16.8598 27.6744 16.7399 26.9593 16.113L26.8936 16.2126C26.8936 16.2126 26.8936 16.2103 26.8914 16.2103L25.6738 18.0321C25.9771 18.2426 26.3007 18.4191 26.6402 18.5616C27.9844 19.1206 29.3604 19.0935 30.7159 18.5051C31.6958 18.0796 32.4653 17.4324 32.9903 16.6109L31.1391 15.373ZM37.0276 6.13293V16.2579L38.6027 16.896L37.7088 18.9826L35.9708 18.2584C35.5815 18.0887 35.3145 17.8307 35.1153 17.5387C34.923 17.2423 34.7804 16.8327 34.7804 16.285V6.13293H37.0276ZM41.1056 13.6802C41.1056 12.818 41.4881 12.044 42.0901 11.519L40.4742 9.71762C39.3789 10.6862 38.6887 12.1006 38.6887 13.6757C38.6864 15.2531 39.3767 16.6697 40.4697 17.6383L42.0833 15.8369C41.4836 15.3096 41.1056 14.5402 41.1056 13.6802ZM43.9752 16.5521C43.6584 16.5521 43.3506 16.4977 43.0655 16.4027L42.2937 18.6952C42.821 18.8717 43.3845 18.969 43.9729 18.969C46.5302 18.9713 48.6643 17.1563 49.1599 14.7461L46.7882 14.2618C46.5189 15.5721 45.3625 16.5543 43.9752 16.5521ZM43.982 8.39147C43.3959 8.39147 42.8324 8.48651 42.3051 8.66077L43.07 10.9555C43.3574 10.8605 43.6629 10.8084 43.9797 10.8084C45.3692 10.8107 46.5279 11.7974 46.7904 13.1099L49.1621 12.6302C48.6756 10.2155 46.5415 8.39373 43.982 8.39147Z" fill="white"/>
</svg>
