<svg width="58" height="25" viewBox="0 0 58 25" fill="none" xmlns="http://www.w3.org/2000/svg">
<g clip-path="url(#clip0_1502_375)">
<path d="M16.3275 0H10.3752C7.74499 0.124355 5.5951 1.18368 4.97434 3.36819C4.65065 4.50745 4.47252 5.75867 4.21941 6.93965C2.93268 12.9445 1.79172 19.1149 0.560913 25H46.9024C50.485 25 52.9451 24.2429 53.6097 21.3993C53.9185 20.0784 54.2143 18.5825 54.5098 17.1312C55.6616 11.4729 56.8144 5.81493 57.9943 0H16.3275Z" fill="#822124"/>
<path d="M15.8629 8.885C16.1119 8.71352 16.4325 7.93256 16.0662 7.60741C15.9502 7.50447 15.7562 7.47459 15.4855 7.52037C15.2344 7.56276 15.09 7.64811 14.9919 7.78171C14.8343 7.99648 14.6896 8.64441 14.9338 8.88512C15.1717 9.1194 15.7045 8.99403 15.8629 8.885V8.885ZM12.3206 7.60741C12.1422 8.76471 11.9413 9.89946 11.7398 11.0337C10.4463 11.0473 9.12567 11.0975 7.87806 11.0046C8.11369 9.89495 8.28269 8.7186 8.51686 7.60741H7.12313C6.62424 10.4379 6.17034 13.3136 5.61328 16.086H7.03609C7.25921 14.664 7.46801 13.2273 7.76193 11.8757C8.97504 11.8459 10.429 11.7938 11.5947 11.9048C11.3544 13.3099 11.0639 14.6646 10.8398 16.086H12.2626C12.7199 13.2136 13.2014 10.3659 13.7726 7.60741H12.3206V7.60741ZM32.4425 10.0465C31.3355 9.59934 30.4651 10.3549 30.0616 11.0627C30.1532 10.7479 30.1908 10.3791 30.265 10.0465H29.1616C28.8918 12.1384 28.4943 14.1024 28.1164 16.086H29.365C29.54 14.9086 29.6155 13.3214 30.0037 12.1951C30.3139 11.2951 31.1259 10.5283 32.2975 10.9466C32.3138 10.6146 32.4088 10.3611 32.4425 10.0465V10.0465ZM33.1393 14.6633C33.0242 14.3659 32.9945 13.875 33.0233 13.5017C33.0878 12.6628 33.3935 11.6413 33.8653 11.1789C34.5164 10.5406 35.8018 10.6463 36.8271 11.0047C36.8588 10.6591 36.9282 10.3509 36.9723 10.0175C35.2909 9.74286 33.6953 9.91378 32.8493 10.8015C32.021 11.6705 31.4782 13.6679 31.8619 14.9246C32.3111 16.3952 34.3253 16.4752 35.956 15.9119C36.0282 15.6163 36.0664 15.2868 36.1302 14.9828C35.239 15.4456 33.5353 15.6862 33.1393 14.6633V14.6633ZM47.1638 10.0755C46.0603 9.52369 45.1415 10.4495 44.7829 11.0046C44.885 10.7198 44.8909 10.3384 44.9861 10.0464H43.8828C43.5852 12.1202 43.2267 14.1328 42.8085 16.0859H44.0861C44.0941 15.2854 44.2514 14.6933 44.3763 13.9084C44.6433 12.2321 45.0354 10.394 46.9898 10.9465C47.0544 10.6631 47.0814 10.3415 47.1638 10.0755ZM14.5853 10.0465C14.5515 10.0513 14.5538 10.0924 14.5563 10.1335C14.2812 12.191 13.9088 14.1513 13.511 16.0859H14.7595C15.0595 14.0146 15.4032 11.9871 15.8339 10.0464L14.5853 10.0465V10.0465ZM25.5609 9.93035C24.6588 9.99992 23.8962 10.2595 23.3542 10.8305C22.6895 11.5307 22.1513 13.079 22.309 14.4891C22.534 16.5007 25.0386 16.4284 27.0418 15.9409C27.076 15.5878 27.1614 15.286 27.216 14.9536C26.3908 15.2624 24.958 15.6934 24.109 15.157C23.4682 14.7517 23.4645 13.7258 23.6735 12.834C25.0199 12.7912 26.4193 12.7993 27.7675 12.834C27.853 12.202 28.0978 11.5129 27.8837 10.8887C27.6014 10.0645 26.5901 9.85098 25.5609 9.93035ZM26.7514 12.1371H23.8186C23.9115 11.4629 24.5181 10.7218 25.4738 10.6853C26.3733 10.6509 27.0172 11.0155 26.7514 12.1371V12.1371ZM20.8281 10.0465C19.7714 9.64951 18.4835 10.1234 17.9251 10.5741C17.9271 10.594 17.9118 10.5967 17.8953 10.5981C17.9048 10.5901 17.9152 10.5821 17.9251 10.5741C17.925 10.5725 17.9248 10.5708 17.9246 10.5692C17.9339 10.3753 18.0021 10.2403 18.0116 10.0465H16.9373C16.4896 13.025 15.9587 15.9203 15.3984 18.7863H16.647C16.8277 17.6701 16.947 16.4925 17.1987 15.4472C17.4838 16.5467 19.3457 16.3366 20.1314 15.9118C21.7523 15.0351 23.0026 10.8632 20.8281 10.0465V10.0465ZM19.8409 14.9536C19.1729 15.6611 17.5307 15.6505 17.4019 14.4599C17.3458 13.942 17.5387 13.3989 17.6344 12.863C17.7307 12.3206 17.8003 11.8002 17.8955 11.3241C18.5534 10.5207 20.4869 10.4236 20.683 11.7596C20.8532 12.9195 20.3941 14.3677 19.8409 14.9536V14.9536ZM51.8095 7.43322C51.7025 8.37146 51.5594 9.27374 51.374 10.1335C48.3114 9.16404 46.4332 11.4174 46.467 14.1987C46.4737 14.7366 46.5663 15.27 46.9024 15.6505C47.4824 16.3059 49.1422 16.463 49.9804 15.9117C50.1426 15.805 50.3084 15.6109 50.4158 15.4763C50.4967 15.3749 50.6249 15.1094 50.6482 15.1859C50.604 15.4804 50.5382 15.7535 50.5322 16.0859H51.6646C51.883 12.9552 52.5576 10.2813 53.0583 7.43311H51.8096V7.43322H51.8095ZM49.0221 15.4181C48.1816 15.4361 47.7637 14.9159 47.7444 14.0535C47.7109 12.5429 48.3735 10.8648 49.719 10.7143C50.3454 10.6442 50.7989 10.7899 51.2579 10.9466C50.8365 12.6434 50.9886 15.3759 49.0221 15.4181V15.4181ZM38.2497 10.0465C38.1882 10.3915 38.0939 10.7037 38.0174 11.0337C38.7542 10.8489 41.0484 10.2825 41.2695 11.2659C41.3429 11.5926 41.2163 11.9398 41.1243 12.1951C39.0498 11.9986 37.3589 12.3433 36.914 13.8211C36.6162 14.811 36.9474 15.7851 37.5819 16.057C38.8039 16.5806 40.2903 15.9808 40.8049 15.157C40.7514 15.4421 40.7008 15.7304 40.718 16.086H41.7922C41.8037 15.0571 41.9534 14.2243 42.1116 13.2984C42.2464 12.51 42.5002 11.7295 42.4601 11.0337C42.3676 9.44004 39.7275 10.0038 38.2497 10.0465V10.0465ZM40.2822 14.9245C39.6388 15.5544 37.8326 15.7333 38.0174 14.2277C38.1708 12.9771 39.5325 12.7114 41.0079 12.8919C40.8983 13.576 40.7725 14.4446 40.2822 14.9245V14.9245Z" fill="white"/>
</g>
<defs>
<clipPath id="clip0_1502_375">
<rect width="57.4449" height="25" fill="white" transform="translate(0.555176)"/>
</clipPath>
</defs>
</svg>
