<svg width="77" height="25" viewBox="0 0 77 25" fill="none" xmlns="http://www.w3.org/2000/svg">
<g clip-path="url(#clip0_1502_371)">
<path d="M36.6121 14.8448L35.7863 18.9661C35.4234 20.6378 34.4167 21.7523 32.3609 21.7523C30.0007 21.7523 29.3785 20.2888 29.8957 18.2302C30.6288 15.3072 33.0121 14.4368 36.6121 14.8448M40.329 8.95183L37.82 9.11256L37.0265 13.1482C36.0677 13.1141 35.7651 13.0833 34.6373 13.0833C31.1064 13.0833 28.0245 14.5685 27.2108 18.0496C26.4771 21.1882 28.2598 23.6239 32.149 23.6239C36.1322 23.6239 37.8656 21.5465 38.4887 18.6244L40.329 8.95183ZM13.1083 15.0207C9.42959 14.6859 6.26389 14.9913 6.21232 16.2402C6.1331 18.1164 12.2766 16.4797 12.1582 19.9305C11.986 25 3.44267 23.833 1.32837 23.1887L1.71245 21.6832C5.35711 22.2621 9.20209 22.3096 9.28683 20.2993C9.37755 18.1634 3.20734 20.0838 3.35287 16.6234C3.46017 14.0472 7.31575 12.6573 13.6273 13.5834L13.1083 15.0207ZM23.0287 18.4697C22.4977 20.5858 20.8195 21.9144 18.8217 21.9144C16.7323 21.9144 15.7914 20.7028 16.3519 18.4697C16.8833 16.3535 18.5813 14.9323 20.5791 14.9323C22.5755 14.9323 23.5606 16.3535 23.0287 18.4697M20.901 13.2002C17.2425 13.2002 14.3006 15.3168 13.5781 18.4697C12.8527 21.6238 14.822 23.74 18.4804 23.74C22.138 23.74 25.0799 21.6234 25.8038 18.4697C26.5287 15.3164 24.5585 13.2002 20.901 13.2002ZM63.1751 23.6866H59.9947C58.0664 21.873 54.3766 17.7061 51.6604 13.297H53.9944C56.5738 16.8555 63.1751 23.6866 63.1751 23.6866M66.5084 3.05057L67.972 0L68.3888 3.10169L71.373 2.0572L69.2878 4.73105L71.549 6.48292L68.5306 6.71641L68.3648 9.94151L66.6867 7.55826L64.2201 9.83191L65.1439 6.62752L62.2352 6.23285L65.067 4.62052L63.905 1.85963L66.5084 3.05057ZM72.7109 18.5014C72.1711 20.6503 70.4667 22.0006 68.4381 22.0006C66.3159 22.0006 65.3599 20.7705 65.9295 18.5014C66.4693 16.3517 68.1935 14.9084 70.2217 14.9084C72.2517 14.9088 73.2511 16.3517 72.7109 18.5014ZM70.5492 13.1477C66.834 13.1477 63.8461 15.2984 63.1102 18.5014C62.3747 21.7049 64.3753 23.8547 68.0904 23.8547C71.8064 23.8547 74.7948 21.7049 75.5293 18.5014C76.2662 15.2984 74.2647 13.1477 70.5492 13.1477Z" fill="#293896"/>
<path d="M49.2495 22.8011C55.2572 19.465 60.475 14.3369 64.1758 9.90479C61.5149 18.2326 55.1098 22.714 49.2495 22.8011" fill="#ED1C24"/>
<path d="M46.8725 14.7458C48.0229 14.7458 48.6488 15.1635 48.6488 15.9616C48.6488 18.0792 44.5206 17.9392 42.6996 17.568C43.3407 15.9833 44.7858 14.7458 46.8725 14.7458ZM51.1237 15.8451C51.1237 14.3102 49.8996 13.1814 47.1226 13.1814C42.6186 13.1814 39.6919 16.1049 39.6919 19.7246C39.6919 22.0623 41.6321 24.0044 45.1764 24.0044C47.6181 24.0044 49.2489 22.8015 49.2489 22.8015C46.1416 23.1344 42.3252 22.8015 42.3252 19.476C42.3252 19.3438 42.3326 19.2125 42.3427 19.0808C46.5838 19.9609 51.1237 18.8952 51.1237 15.8451Z" fill="#293896"/>
</g>
<defs>
<clipPath id="clip0_1502_371">
<rect width="76.4059" height="25" fill="white" transform="translate(0.594238)"/>
</clipPath>
</defs>
</svg>
